<?xml version="1.0" encoding="UTF-8"?>
<svg id="_图层_2" data-name="图层 2" xmlns="http://www.w3.org/2000/svg" viewBox="0 0 266 141.63">
  <defs>
    <style>
      .cls-1 {
        fill: #ff6c0c;
      }
    </style>
  </defs>
  <g id="_图层_1-2" data-name="图层 1">
    <g>
      <path d="M79,12.31H22C9.85,12.31,0,22.16,0,34.31v73c0,12.15,9.85,22,22,22h57c12.15,0,22-9.85,22-22V34.31c0-12.15-9.85-22-22-22ZM82,97.31c0,5.52-4.48,10-10,10H29c-5.52,0-10-4.48-10-10v-53c0-5.52,4.48-10,10-10h43c5.52,0,10,4.48,10,10v53Z"/>
      <rect x="131" y="12.31" width="23" height="117" rx="10" ry="10"/>
      <path class="cls-1" d="M223.6,138.39c2.59,3.56,7.6,4.38,10.93,1.49,8.85-7.69,16.16-17.03,21.51-27.52,6.56-12.87,9.97-27.1,9.97-41.54s-3.42-28.67-9.97-41.54c-5.35-10.49-12.66-19.83-21.51-27.52-3.32-2.89-8.34-2.07-10.93,1.49h0c-2.59,3.56-1.76,8.52,1.51,11.47,6.84,6.17,12.51,13.56,16.72,21.81,5.41,10.62,8.23,22.38,8.23,34.3s-2.82,23.68-8.23,34.3c-4.2,8.25-9.88,15.63-16.72,21.81-3.27,2.95-4.09,7.91-1.51,11.47h0Z"/>
      <path class="cls-1" d="M207.68,116.48c2.62,3.6,7.69,4.43,10.94,1.39,5.43-5.09,9.96-11.1,13.35-17.77,4.62-9.07,7.03-19.1,7.03-29.28s-2.41-20.21-7.03-29.28c-3.4-6.67-7.92-12.68-13.35-17.77-3.25-3.04-8.32-2.21-10.94,1.39h0c-2.62,3.6-1.76,8.6,1.36,11.77,3.44,3.5,6.34,7.52,8.58,11.92,3.47,6.8,5.27,14.33,5.27,21.97s-1.81,15.16-5.27,21.97c-2.24,4.4-5.14,8.42-8.58,11.92-3.12,3.17-3.97,8.17-1.36,11.77h0Z"/>
      <path class="cls-1" d="M192.59,95.53c2.62,3.61,7.75,4.45,10.72,1.13,2.18-2.44,4.05-5.16,5.54-8.09,2.72-5.34,4.14-11.26,4.14-17.25s-1.42-11.91-4.14-17.25c-1.5-2.94-3.36-5.65-5.54-8.09-2.97-3.32-8.1-2.48-10.72,1.13h0c-2.62,3.61-1.65,8.61.77,12.36.4.62.77,1.27,1.11,1.93,1.57,3.07,2.38,6.47,2.38,9.92s-.82,6.85-2.38,9.93c-.34.66-.71,1.31-1.11,1.93-2.42,3.74-3.39,8.75-.77,12.35h0Z"/>
      <circle class="cls-1" cx="180.5" cy="70.81" r="8.5"/>
    </g>
  </g>
</svg>