<?xml version="1.0" encoding="UTF-8"?>
<svg id="_图层_2" data-name="图层 2" xmlns="http://www.w3.org/2000/svg" xmlns:xlink="http://www.w3.org/1999/xlink" viewBox="0 0 975.09 498.27">
  <defs>
    <style>
      .cls-1 {
        fill: url(#_未命名的渐变_54);
      }

      .cls-2 {
        fill: #358dc8;
      }

      .cls-3 {
        fill: #fff;
      }

      .cls-4 {
        fill: #f0842b;
      }

      .cls-5 {
        fill: #f18227;
      }

      .cls-6 {
        fill: #f18126;
      }
    </style>
    <linearGradient id="_未命名的渐变_54" data-name="未命名的渐变 54" x1="521.67" y1="147.11" x2="560.42" y2="147.11" gradientUnits="userSpaceOnUse">
      <stop offset="0" stop-color="#358dc8"/>
      <stop offset=".99" stop-color="#f0842b"/>
    </linearGradient>
  </defs>
  <g id="_图层_1-2" data-name="图层 1">
    <g>
      <path class="cls-3" d="M69.97,325.06c-38.65,0-69.97,31.31-69.97,69.93s31.33,69.93,69.97,69.93,69.97-31.31,69.97-69.93-31.33-69.93-69.97-69.93ZM70.01,443.8c-27.05,0-48.99-21.92-48.99-48.95s21.93-48.95,48.99-48.95,48.99,21.92,48.99,48.95-21.93,48.95-48.99,48.95Z"/>
      <path class="cls-3" d="M242.4,365.63c-18.7-9.48-40.51-7.19-56.71,6.32l-1.82-11.13c-6.71-.71-13.01-1.63-19.26.95l.16,135.84c7.83.98,14.23.78,20.57,0l.93-45.87c15.45,13,35.22,15.31,53.42,7.41,15.69-6.81,26.89-23.44,28.39-43.27,1.65-21.74-8.37-41.45-25.69-50.24ZM216.11,444.72c-17.82-.22-30.35-14.31-30.86-33.13-.48-17.94,11.66-32.71,29.19-33.83,17.89-1.15,32.1,12.91,32.32,32.9.21,20.02-12.84,34.28-30.65,34.07Z"/>
      <path class="cls-3" d="M680.96,448.27c-21.23,24.07-75.25,18.8-97.35-2.58,1.32-6.12,4.57-11.25,8.58-17.03,18.44,17.81,73.99,25.92,74.95-2.75.25-7.54-5.1-13.52-12.76-15.8l-35.48-10.59c-8.77-2.62-17.54-6.12-23.96-12.84-8.28-8.66-9.53-21.1-6.26-33.65,8.66-33.34,72.16-32.19,95.93-14.18-1.82,6.1-4.49,11.03-7.67,16.86-18.48-13.42-65.89-18.16-67.88,7.25-1.76,22.54,54.7,20.39,71.67,38.16,11.78,12.34,11.96,33.85.23,47.15Z"/>
      <path class="cls-3" d="M960.77,427.68c6.11,3.63,9.29,8.58,14.28,13.5-12.58,15.86-31.3,22.42-51.8,22.95-35.84.91-67.07-24.16-71.1-59.97-2.45-21.79,4.06-41.48,18.61-57.05,25.72-27.54,78.11-28.45,104.33.04-3.74,5.27-8.34,9.74-14.27,14.15-19.16-20.71-51.31-21.57-71.26-3.11-20.48,18.94-21.03,51.75-2.22,71.24,19.88,20.59,53.73,20.53,73.43-1.74Z"/>
      <path class="cls-3" d="M468.5,379.91c-9.94-4.07-19.85-1.89-27.38,3.56-7.39,5.35-11.23,14.19-11.23,24.38l.02,53.56c-7.24,1.46-13.72,1.51-21.08-.1l-.03-99.32c6.83-1.48,12.77-1.03,19.28-.18l1.96,10.23c10.72-10.2,23.98-13.44,38.36-11.89,19.03,2.06,33.67,15.86,35.19,35.44,1.69,21.89,1.03,43.36.61,65.8-6.97,1.56-13.25,1.5-20.79.03l-.32-58.98c-.05-9.63-4.82-18.55-14.59-22.55Z"/>
      <rect class="cls-3" x="535.45" y="327.4" width="21.61" height="134.96"/>
      <path class="cls-3" d="M781.22,328.05c-7.99-1.14-14.71-1.09-22.39-.07l-60.54,133.07c8.09,2.03,15.56,2.09,22.85.07l14.34-32.23,69.5.18c5.77,11.25,8.38,22.73,15.26,31.97,6.01,2.91,15.27,1.3,22.21.15l-61.24-133.14ZM743.89,410.61l25.87-58.87,26.6,58.26c-17.46,1.91-33.86.5-52.47.61Z"/>
      <path class="cls-3" d="M372.76,376.09c-9.28-10.71-23.22-16.34-38.53-16.36-31.08-.04-52.86,25.19-50.43,56,2.24,28.27,25.39,48.4,54.19,47.9,15.62-.27,30.76-4.68,40.72-17.21-3.61-5.01-7.12-8.77-12.32-12.46-8.75,8.56-17.97,10.78-28.57,10.78-15.79,0-29.45-9.61-32.71-25.71l79.46-.49c1.97-15.85-2-31.11-11.81-42.43ZM305.57,402.93c.76-15.01,14.41-24.59,27.78-25.45,15.16-.97,28.22,9.15,31.32,25.34l-59.1.11Z"/>
      <path class="cls-5" d="M664.91,279.92c-8.16-5.56-12.41-12.74-18.44-20.19,47.27-47.46,61.59-115.95,37.51-178.73-8.82-22.98-23.46-41.52-39.57-60.34,4.81-7.64,10.07-12.87,17.25-20.66,78.08,74.83,83.01,200.5,3.26,279.92Z"/>
      <path class="cls-6" d="M630.42,239.78c-7.1-5.9-10.59-12.2-17.06-19.44,43.59-45.3,41.97-113.42-1.68-158.46,6.41-7.51,10.09-14.01,17.15-20.5,54.97,48.83,59.31,147.07,1.59,198.41Z"/>
      <path class="cls-4" d="M597.9,200.19c-8.12-6.15-12.3-12.38-18.36-19.63,20.65-22.16,19.69-54.47-.03-77.6,4.97-7.34,9.66-13.31,16.44-20.76,32.29,27.39,33.46,86.81,1.95,117.98Z"/>
      <path class="cls-2" d="M383.14,32.57c-63.22,0-114.47,51.22-114.47,114.4s51.25,114.4,114.47,114.4,114.47-51.22,114.47-114.4-51.25-114.4-114.47-114.4ZM383.11,233.55c-47.87,0-86.67-38.78-86.67-86.61s38.8-86.61,86.67-86.61,86.67,38.78,86.67,86.61-38.8,86.61-86.67,86.61Z"/>
      <rect class="cls-1" x="521.9" y="31.99" width="38.76" height="230.22"/>
    </g>
  </g>
</svg>